<svg xmlns="http://www.w3.org/2000/svg" viewBox="0 0 1024 1024">
  <defs>
    <linearGradient id="bg" x1="0" y1="0" x2="1" y2="1">
      <stop offset="0%" stop-color="#1e3a5f"/>
      <stop offset="100%" stop-color="#0f1f33"/>
    </linearGradient>
  </defs>
  <!-- Rounded square background -->
  <rect width="1024" height="1024" rx="220" fill="url(#bg)"/>
  <!-- Document icon (left) -->
  <g transform="translate(220, 240)">
    <path d="M0 40 C0 18 18 0 40 0 L220 0 L320 100 L320 500 C320 522 302 540 280 540 L40 540 C18 540 0 522 0 500 Z" fill="#e8edf2" opacity="0.95"/>
    <path d="M220 0 L220 60 C220 82 238 100 260 100 L320 100 Z" fill="#c5cdd6"/>
    <!-- Lines on document -->
    <rect x="50" y="160" width="220" height="16" rx="8" fill="#94a3b8"/>
    <rect x="50" y="200" width="180" height="16" rx="8" fill="#94a3b8"/>
    <rect x="50" y="240" width="200" height="16" rx="8" fill="#94a3b8"/>
    <rect x="50" y="320" width="220" height="16" rx="8" fill="#94a3b8"/>
    <rect x="50" y="360" width="160" height="16" rx="8" fill="#94a3b8"/>
    <rect x="50" y="400" width="190" height="16" rx="8" fill="#94a3b8"/>
  </g>
  <!-- Arrow -->
  <g transform="translate(560, 430)">
    <path d="M0 40 L80 40 L80 10 L140 55 L80 100 L80 70 L0 70 Z" fill="#60a5fa" opacity="0.9"/>
  </g>
  <!-- Form/clipboard icon (right) -->
  <g transform="translate(680, 260)">
    <!-- Clipboard body -->
    <rect x="0" y="30" width="200" height="280" rx="20" fill="#f8fafc" opacity="0.95"/>
    <!-- Clipboard clip -->
    <rect x="60" y="10" width="80" height="44" rx="10" fill="#60a5fa"/>
    <!-- Checkboxes -->
    <rect x="30" y="100" width="24" height="24" rx="5" fill="none" stroke="#60a5fa" stroke-width="4"/>
    <path d="M35 113 L40 118 L50 106" fill="none" stroke="#60a5fa" stroke-width="4" stroke-linecap="round" stroke-linejoin="round"/>
    <rect x="70" y="104" width="100" height="14" rx="7" fill="#94a3b8"/>
    <rect x="30" y="160" width="24" height="24" rx="5" fill="none" stroke="#60a5fa" stroke-width="4"/>
    <path d="M35 173 L40 178 L50 166" fill="none" stroke="#60a5fa" stroke-width="4" stroke-linecap="round" stroke-linejoin="round"/>
    <rect x="70" y="164" width="80" height="14" rx="7" fill="#94a3b8"/>
    <rect x="30" y="220" width="24" height="24" rx="5" fill="none" stroke="#94a3b8" stroke-width="4" opacity="0.5"/>
    <rect x="70" y="224" width="90" height="14" rx="7" fill="#94a3b8" opacity="0.5"/>
  </g>
</svg>
